<?xml version="1.0" encoding="utf-8"?>
<!-- Generator: Adobe Illustrator 19.1.0, SVG Export Plug-In . SVG Version: 6.00 Build 0)  -->
<!DOCTYPE svg PUBLIC "-//W3C//DTD SVG 1.1//EN" "http://www.w3.org/Graphics/SVG/1.1/DTD/svg11.dtd">
<svg version="1.1" id="Objets" xmlns="http://www.w3.org/2000/svg" xmlns:xlink="http://www.w3.org/1999/xlink" x="0px" y="0px"
	 viewBox="0 0 416.4 282.2" style="enable-background:new 0 0 416.4 282.2;" xml:space="preserve">
<style type="text/css">
	.st0{fill:#FFFFFF;}
</style>
<path id="MobileMe_4_" class="st0" d="M416.4,199.9c0,45.5-36.6,82.4-81.7,82.4H81.7C36.6,282.2,0,245.3,0,199.9
	c0-41.1,29.8-75.1,68.9-81.3c-0.5-2.9-0.8-5.8-0.8-8.9c0-28.8,23.2-52.2,51.8-52.2c12.8,0,24.5,4.6,33.5,12.4
	C169.5,33.3,190.1,0,247.9,0c70.1,0,103.4,54.5,103.4,112c0,2.4-0.1,4.8-0.3,7.1C388.3,126.8,416.4,160,416.4,199.9z"/>
<path id="MobileMe_1_" class="st0" d="M416.4,199.9c0,45.5-36.6,82.4-81.7,82.4H81.7C36.6,282.2,0,245.3,0,199.9
	c0-41.1,29.8-75.1,68.9-81.3c-0.5-2.9-0.8-5.8-0.8-8.9c0-28.8,23.2-52.2,51.8-52.2c12.8,0,24.5,4.6,33.5,12.4
	C169.5,33.3,190.1,0,247.9,0c70.1,0,103.4,54.5,103.4,112c0,2.4-0.1,4.8-0.3,7.1C388.3,126.8,416.4,160,416.4,199.9z"/>
</svg>
