<?xml version="1.0" encoding="utf-8"?>
<!-- Generator: Adobe Illustrator 19.1.0, SVG Export Plug-In . SVG Version: 6.00 Build 0)  -->
<!DOCTYPE svg PUBLIC "-//W3C//DTD SVG 1.1//EN" "http://www.w3.org/Graphics/SVG/1.1/DTD/svg11.dtd">
<svg version="1.1" id="Objets" xmlns="http://www.w3.org/2000/svg" xmlns:xlink="http://www.w3.org/1999/xlink" x="0px" y="0px"
	 viewBox="176 -120.2 116 149.1" style="enable-background:new 176 -120.2 116 149.1;" xml:space="preserve">
<style type="text/css">
	.st0{fill:#FFFFFF;}
	.st1{clip-path:url(#SVGID_2_);fill:#FFFFFF;}
</style>
<g>
	<path class="st0" d="M245.2-53.8c0,1.7-1.4,3-3,3s-3-1.4-3-3c0-1.7,1.4-3,3-3S245.2-55.4,245.2-53.8L245.2-53.8z M245.2-53.8"/>
	<path class="st0" d="M263.6-75.1c0,2.2-1.8,4-4,4c-2.2,0-4-1.8-4-4c0-2.2,1.8-4,4-4C261.8-79.2,263.6-77.3,263.6-75.1L263.6-75.1z
		 M263.6-75.1"/>
	<g>
		<defs>
			<rect id="SVGID_1_" x="176" y="-120.2" width="116" height="149.1"/>
		</defs>
		<clipPath id="SVGID_2_">
			<use xlink:href="#SVGID_1_"  style="overflow:visible;"/>
		</clipPath>
		<path class="st1" d="M230-80.3c0,3-2.4,5.4-5.4,5.4c-3,0-5.4-2.4-5.4-5.4c0-3,2.4-5.4,5.4-5.4C227.6-85.7,230-83.3,230-80.3
			L230-80.3z M230-80.3"/>
		<path class="st1" d="M281.1-98.1c-6.6-8.2-23.6-22.1-45.8-22.1c-14.9,0-29,6.2-42.1,18.5c0,0,0,0-0.1,0.1
			c-12.7,13.1-11.1,25.2-8.9,40.5c0.1,0.9,0.3,1.9,0.4,2.9c0.3,2.6-1.9,6.6-4.1,10.5c-3.3,5.8-6.7,11.9-2.5,14.7
			c7.1,4.9,8.4,14.4,9.6,23.7c0.3,2.2,0.6,4.5,0.9,6.7c0.6,3.8,3.9,5.7,9.8,5.7c2.7,0,5.5-0.3,8.3-0.6c2.4-0.3,4.6-0.5,6.4-0.5
			c1,0,1.8,0.1,2.4,0.2c7.2,2,13.5,16.5,15.8,25.2c0.2,0.7,0.7,1.3,1.4,1.5c0.2,0.1,0.4,0.1,0.6,0.1c0.5,0,1-0.2,1.4-0.6L271.4-7
			c0.6-0.5,0.8-1.4,0.5-2.1c-3.3-10.2,3.5-20.1,9.5-28.9c2.6-3.8,5.1-7.4,6.8-11C295.9-65.5,290.3-86.6,281.1-98.1L281.1-98.1z
			 M230.1-63.4l-1.4-2.2c-1,0.3-2.1,0.5-3.1,0.5l-0.6,2.5c-0.2,0.9-1.1,1.5-2,1.3l-5.3-1.2c-0.9-0.2-1.5-1.1-1.3-2l0.6-2.5
			c-0.9-0.5-1.8-1.1-2.6-1.8l-2.2,1.4c-0.8,0.5-1.8,0.3-2.3-0.5l-2.9-4.6c-0.5-0.8-0.3-1.8,0.5-2.3l2.2-1.4c-0.3-1-0.5-2.1-0.5-3.1
			l-2.5-0.6c-0.9-0.2-1.5-1.1-1.3-2l1.2-5.3c0.2-0.9,1.1-1.5,2-1.3l2.5,0.6c0.5-0.9,1.1-1.8,1.8-2.6l-1.4-2.2
			c-0.5-0.8-0.3-1.8,0.5-2.3l4.6-2.9c0.8-0.5,1.8-0.3,2.3,0.5l1.4,2.2c1-0.3,2.1-0.5,3.1-0.5l0.6-2.5c0.2-0.9,1.1-1.5,2-1.3l5.3,1.2
			c0.9,0.2,1.5,1.1,1.3,2l-0.6,2.5c0.9,0.5,1.8,1.1,2.6,1.8l2.2-1.4c0.8-0.5,1.8-0.3,2.3,0.5l2.9,4.6c0.5,0.8,0.3,1.8-0.5,2.3
			l-2.2,1.4c0.3,1,0.5,2.1,0.5,3.1l2.5,0.6c0.9,0.2,1.5,1.1,1.3,2l-1.2,5.3c-0.2,0.9-1.1,1.5-2,1.3l-2.5-0.6
			c-0.5,0.9-1.1,1.8-1.8,2.6l1.4,2.2c0.5,0.8,0.3,1.8-0.5,2.3l-4.6,2.9C231.6-62.4,230.6-62.6,230.1-63.4L230.1-63.4z M252.2-53.9
			l-1.4,0.4c0,0.6-0.1,1.2-0.2,1.8l1.3,0.7c0.5,0.3,0.6,0.8,0.3,1.3l-1.5,2.6c-0.3,0.4-0.8,0.6-1.3,0.3l-1.3-0.7
			c-0.4,0.4-0.9,0.8-1.4,1.1l0.4,1.4c0.1,0.5-0.2,1-0.7,1.2l-2.9,0.8c-0.5,0.1-1-0.2-1.2-0.7l-0.4-1.4c-0.6,0-1.2-0.1-1.8-0.2
			l-0.7,1.3c-0.3,0.5-0.8,0.6-1.3,0.3l-2.6-1.5c-0.5-0.3-0.6-0.8-0.3-1.3l0.7-1.3c-0.4-0.4-0.8-0.9-1.1-1.4l-1.4,0.4
			c-0.5,0.1-1-0.2-1.2-0.7l-0.8-2.9c-0.1-0.5,0.2-1,0.7-1.2l1.4-0.4c0-0.6,0.1-1.2,0.2-1.8l-1.3-0.7c-0.5-0.3-0.6-0.8-0.3-1.3
			l1.5-2.6c0.3-0.5,0.8-0.6,1.3-0.3l1.3,0.7c0.4-0.4,0.9-0.8,1.4-1.1l-0.4-1.4c-0.1-0.5,0.2-1,0.7-1.2l2.9-0.8
			c0.5-0.1,1,0.2,1.2,0.7l0.4,1.4c0.6,0,1.2,0.1,1.8,0.2l0.7-1.3c0.3-0.5,0.8-0.6,1.3-0.3l2.6,1.5c0.5,0.3,0.6,0.8,0.3,1.3l-0.7,1.3
			c0.4,0.4,0.8,0.9,1.1,1.4l1.4-0.4c0.5-0.1,1,0.2,1.2,0.7l0.8,2.9C253-54.6,252.7-54,252.2-53.9L252.2-53.9z M272.8-75.3l-1.9,0.5
			c0,0.8-0.1,1.6-0.3,2.3l1.7,1c0.6,0.3,0.8,1.1,0.5,1.7l-2,3.5c-0.3,0.6-1.1,0.8-1.7,0.5l-1.7-1c-0.6,0.5-1.2,1-1.9,1.4l0.5,1.9
			c0.2,0.7-0.2,1.4-0.9,1.5l-3.9,1c-0.7,0.2-1.4-0.2-1.5-0.9l-0.5-1.9c-0.8,0-1.6-0.1-2.3-0.3l-1,1.7c-0.3,0.6-1.1,0.8-1.7,0.5
			l-3.5-2c-0.6-0.3-0.8-1.1-0.5-1.7l1-1.7c-0.5-0.6-1-1.2-1.4-1.9l-1.9,0.5c-0.7,0.2-1.4-0.2-1.5-0.9l-1-3.9
			c-0.2-0.7,0.2-1.4,0.9-1.5l1.9-0.5c0-0.8,0.1-1.6,0.3-2.3l-1.7-1c-0.6-0.3-0.8-1.1-0.5-1.7l2-3.5c0.3-0.6,1.1-0.8,1.7-0.5l1.7,1
			c0.6-0.5,1.2-1,1.9-1.4l-0.5-1.9c-0.2-0.7,0.2-1.4,0.9-1.5l3.9-1c0.7-0.2,1.4,0.2,1.5,0.9l0.5,1.9c0.8,0,1.6,0.1,2.3,0.3l1-1.7
			c0.3-0.6,1.1-0.8,1.7-0.5l3.5,2c0.6,0.3,0.8,1.1,0.5,1.7l-1,1.7c0.5,0.6,1,1.2,1.4,1.9l1.9-0.5c0.7-0.2,1.4,0.2,1.5,0.9l1,3.9
			C273.9-76.2,273.5-75.5,272.8-75.3L272.8-75.3z M272.8-75.3"/>
	</g>
</g>
</svg>
