<?xml version="1.0" encoding="utf-8"?>
<!-- Generator: Adobe Illustrator 19.1.0, SVG Export Plug-In . SVG Version: 6.00 Build 0)  -->
<!DOCTYPE svg PUBLIC "-//W3C//DTD SVG 1.1//EN" "http://www.w3.org/Graphics/SVG/1.1/DTD/svg11.dtd">
<svg version="1.1" id="Tryb_izolacji" xmlns="http://www.w3.org/2000/svg" xmlns:xlink="http://www.w3.org/1999/xlink" x="0px"
	 y="0px" viewBox="0 0 547.5 651.1" style="enable-background:new 0 0 547.5 651.1;" xml:space="preserve">
<style type="text/css">
	.st0{fill:#4DBDEB;}
	.st1{fill:#0084AD;}
	.st2{fill:#F9F6EA;}
	.st3{fill:#4B4C47;}
	.st4{fill:#FFFFFF;}
</style>
<g>
	<path class="st0" d="M537,219c-6.4-3.7-17,4.2-16.5,2.1c1.4-5.3,1.1-6.8-4.1-7.3c-6.2-0.5-17.3,15.3-17.3,15.3
		c-2.5,2.3-13.4,5.3-16.3,6.3c-11,3.7-47,19.4-64.4,19c-13.8-0.3-25.8-12.4-37.9-22c-3-8.5-12.1-35.6-12.3-50.1
		c-3.1-64.2-20.3-98.8-64.9-129.9c-0.5-2.2-0.7-5.9,2.9-7.5c0,0-4.4-0.2-7.6,1.1c-0.3-2.2,0-5.1,3.1-6.5c0,0-7.8-0.3-10.3,3
		c-0.1,0.1-0.1,0.1-0.1,0.2C280.4,33.4,302.1,28,302.1,28c-19.8-0.4-19.1,3.6-27.3,4.1c-14.5,0.9,10.2-12.8,10.2-12.8
		c-17.7-1.2-25,12.4-25,12.4l-5.5,0.5c-1.9-2.8,4.4-9,4.4-9c-8.3,1.6-9,2.6-9,2.6c-0.5-6.3,14.3-12.7,14.3-12.7
		c-16-6.2-24.4,8.7-25.5,10.9c-0.9,0.2-1.9,0.6-2.9,1.2c0,0,0.6-19,12.3-19.5c11.7-0.5-26.3-13.5-31.8,12.5c0,0,0.5-14.1-15.7-13.6
		c0,0,5.6,7,5.5,13c-0.1,6-3.5-7-9.4-5.4l1.5,17.6c0,0-13.5-14.9-30.2-3.7c0,0,17.4,2.1,18.5,8.3c0,0-0.9-0.8-10.2,0
		c0,0,8.3,4.2,7,7.5l-6,1.1c0,0-11.3-11.2-29.9-5.1c0,0,29.9,6.3,14.2,9.5c-8.8,1.8-9.1-2.3-30.2,3.7c0,0,24.5-0.9,15.4,11.3
		c-0.1-0.1-0.1-0.1-0.2-0.2c-3.5-2.5-11.7-0.1-11.7-0.1c3.7,0.4,4.8,3.2,5,5.4c-3.8-0.4-8.4,1-8.4,1c3,0.3,4.3,2.3,4.8,4.2
		c-36.7,31.3-42.7,62-42.7,116.3c0,1.4-4.5,21.2-7.7,36c-6.9,12.1-39.8,72.8-44.8,84.9c-14.3,35-15.3,55.7-25.1,69.5
		c-7.8,11-12.9,14.3-14.9,22.2c-2.9,11.5,1.2,27,21.4,19.2c6.9-2.7,7.3-15.9,8.6-14.2c3.3,4.4,4.7,5.1,8.3,1.3
		c4.3-4.6-1.8-25.5-1.8-25.5c-0.3-3.3,4.9-11.3,5.9-14.3c4-10.9,16.9-37.2,25.3-62.2c0,0,0.4-4.5,9.6-15.6
		c-3.1,38.8-6.7,85.5-6.7,85.5c-0.4,13.1-0.3,28.2,1.6,40.6l10.7-20.7c0.5,1.2,1,2.3,1.5,3.5c0.6,8.8,2.4,26.3,7.8,41
		c0,0-1.7-14.2,1.5-23.2c0.5,0.9,1.1,1.8,1.7,2.6c1.6,8.2,5.4,25,11.1,30.9c0,0,0-8.5,0.8-14.9c0.8,0.9,1.5,1.8,2.3,2.7
		c0.6,8.6,2.7,20.9,10.1,28.6c0,0,1.3-13,2.1-16.3c0.4,0.4,0.9,0.8,1.3,1.2c0.1,0.4,0.5,1.1,1.2,2.1c1.4,6.7,4.1,13.9,9.1,19
		c0,0,0.3-3.4,0.8-7.1c5.9,6.4,6.2,11.7,16.3,21c3.7,3.4,6.4,7,10.1,10.4c13.9,32.9,37.2,134.6,30,137.5c-8.3,3.3-25.5,9-25.5,9
		s-26.3,9.4,32.3,7c30.2-1.2,16.4-17.4,16.4-17.4l-4.5-77c0,0,0.1-33.9,13.2-41c12.2,0.5,26.2,0.7,38,0.4
		c12.4,7.8,12.6,40.6,12.6,40.6l-4.5,77c0,0-13.7,16.2,16.4,17.4c58.7,2.3,32.3-7,32.3-7s-17.2-5.7-25.5-9
		c-7.7-3.1,19.3-118.6,32.6-143.1c1.7-1.3,3.2-2.6,4.5-3.7c8.6-7.7,27.9-27.9,28.5-30.2c0.4-0.4,0.9-0.8,1.3-1.2
		c0.8,3.3,2.1,16.3,2.1,16.3c7.5-7.7,9.8-20,10.3-28.6c0.8-0.9,1.6-1.8,2.4-2.7c0.8,6.4,0.8,14.9,0.8,14.9
		c5.8-5.9,9.7-22.6,11.3-30.9c0.6-0.9,1.1-1.8,1.7-2.6c3.2,9,1.5,23.2,1.5,23.2c5.5-14.7,7.4-32.2,8-41c0.5-1.1,1-2.3,1.5-3.5
		l10.9,20.7c1.9-12.4,0.6-40.9-1.9-57.6L390.1,278c6.7,0.1,14,0.3,21.1,0.9c4.3,0.3,25.2-4.7,27.4-5.3c36.3-10.6,53.1-22.8,70-23.7
		c13.4-0.7,19.2,1.2,26.7-2.2C546.1,242.8,555.6,229.9,537,219z M147,64.3c0.1-0.1,0.1-0.3,0.1-0.4l0.1,0.2
		C147.2,64.2,147.1,64.2,147,64.3z"/>
	<path class="st1" d="M294.9,251.3c-17.7,3.2-40.1,5-69.5,5c-15.5,0-32.1-0.4-48.8-1.7v5.6c37.3,4.7,81.2,6,121.9-3.7
		c-0.9-0.3-1.7-0.6-2.6-1L294.9,251.3z"/>
	<path class="st1" d="M341.7,241c6.7-3.4,13.2-7.3,19.5-11.7c-0.8-1.9-1.5-3.9-2.4-5.9c0,0,0,0,0,0c-6,4.7-12.3,9.3-20.1,13.5
		L341.7,241z"/>
	<path class="st1" d="M131.9,252.7L131.9,252.7l1.5-3.9c-13.4-2.8-26.2-6.6-38-11.7c0,0,0,0,0,0c-0.8,2.2-1.5,4-2.1,5.7
		C101.4,245.3,114.9,249.1,131.9,252.7z"/>
	<path class="st2" d="M176.6,234.1l-36.9-1.7l-6.3,16.4l-1.5,3.9l0,0c13.1,2.8,28.2,5.6,44.7,7.6v-5.6V234.1z"/>
	<path class="st2" d="M323.2,215.7l-31.9,18.7l3.7,17l0.9,4.2c0.9,0.4,1.8,0.7,2.6,1c15-3.6,29.6-8.6,43.3-15.6l-3-4L323.2,215.7z"
		/>
	<ellipse class="st3" cx="267.3" cy="156.5" rx="24" ry="32.6"/>
	<ellipse class="st3" cx="191.3" cy="156.5" rx="24" ry="32.6"/>
	<circle class="st4" cx="183.9" cy="148" r="7.3"/>
	<circle class="st4" cx="259.9" cy="148" r="7.3"/>
</g>
</svg>
