<?xml version="1.0" encoding="utf-8"?>
<!-- Generator: Adobe Illustrator 19.1.0, SVG Export Plug-In . SVG Version: 6.00 Build 0)  -->
<!DOCTYPE svg PUBLIC "-//W3C//DTD SVG 1.1//EN" "http://www.w3.org/Graphics/SVG/1.1/DTD/svg11.dtd">
<svg version="1.1" id="Objets" xmlns="http://www.w3.org/2000/svg" xmlns:xlink="http://www.w3.org/1999/xlink" x="0px" y="0px"
	 viewBox="176 -120.2 107.6 105.4" style="enable-background:new 176 -120.2 107.6 105.4;" xml:space="preserve">
<style type="text/css">
	.st0{fill:#FFFFFF;}
</style>
<g>
	<g>
		<path class="st0" d="M230.9-14.8c-29.1,0-52.7-23.6-52.7-52.7s23.6-52.7,52.7-52.7s52.7,23.6,52.7,52.7S260-14.8,230.9-14.8z
			 M230.9-116c-26.7,0-48.5,21.8-48.5,48.5S204.2-19,230.9-19s48.5-21.8,48.5-48.5S257.7-116,230.9-116z"/>
	</g>
	<g>
		<path class="st0" d="M226.8-69.1h-13v9.4h15.1v4h-20.1v-29.7h19.9v4h-14.9v8.4h13V-69.1z"/>
		<path class="st0" d="M249.2-63.4c0-1.2-0.5-2.2-1.4-3c-0.9-0.8-2.5-1.5-4.9-2.1c-3.3-0.9-5.9-2-7.7-3.5c-1.8-1.4-2.7-3.3-2.7-5.6
			c0-2.4,1-4.4,3-5.9c2-1.6,4.5-2.3,7.7-2.3c3.3,0,5.9,0.9,7.9,2.6c2,1.8,2.9,3.9,2.9,6.3l0,0.1h-4.8c0-1.5-0.5-2.8-1.6-3.7
			c-1-0.9-2.5-1.4-4.4-1.4c-1.8,0-3.2,0.4-4.2,1.2c-1,0.8-1.5,1.8-1.5,3.1c0,1.1,0.5,2.1,1.6,2.8c1.1,0.7,2.8,1.5,5.2,2.1
			c3.2,0.9,5.6,2,7.3,3.6c1.7,1.5,2.5,3.4,2.5,5.8c0,2.5-1,4.4-3,5.9c-2,1.5-4.6,2.2-7.8,2.2c-3.1,0-5.8-0.8-8.2-2.5
			c-2.3-1.7-3.5-3.9-3.4-6.8l0-0.1h4.8c0,1.8,0.6,3.2,1.9,4.1c1.3,0.9,2.9,1.3,4.9,1.3c1.8,0,3.3-0.4,4.3-1.1
			C248.7-61.1,249.2-62.1,249.2-63.4z"/>
	</g>
</g>
</svg>
