<?xml version="1.0" encoding="utf-8"?>
<!-- Generator: Adobe Illustrator 19.1.0, SVG Export Plug-In . SVG Version: 6.00 Build 0)  -->
<!DOCTYPE svg PUBLIC "-//W3C//DTD SVG 1.1//EN" "http://www.w3.org/Graphics/SVG/1.1/DTD/svg11.dtd">
<svg version="1.1" id="Objets" xmlns="http://www.w3.org/2000/svg" xmlns:xlink="http://www.w3.org/1999/xlink" x="0px" y="0px"
	 viewBox="176 -120.2 107.6 107.8" style="enable-background:new 176 -120.2 107.6 107.8;" xml:space="preserve">
<style type="text/css">
	.st0{fill:#FFFFFF;}
</style>
<path class="st0" d="M283.6-55.4v-21.5h-12.1c-0.9-4.1-2.6-7.7-4.5-11.4l8.4-8.4L260.1-112l-8.2,8.2c-3.4-2.2-7.3-3.9-11.4-4.9
	v-11.4H219v11.4c-4.1,1.1-8,2.8-11.4,4.9l-8.2-8.2l-15.3,15.3l8.4,8.4c-1.9,3.4-3.4,7.3-4.5,11.4H176v21.5h12.3
	c1.1,3.9,2.6,7.5,4.7,10.8l-8.8,8.8l15.3,15.3l9-9c3.2,1.9,6.9,3.4,10.5,4.3v12.9h21.5v-12.9c3.9-1.1,7.3-2.4,10.5-4.3l9,9
	l15.3-15.3l-8.8-8.8c1.9-3.2,3.7-6.9,4.7-10.8H283.6z M229.8-51.1c-8.4,0-15.1-6.7-15.1-15.1s6.7-15.1,15.1-15.1
	c8.4,0,15.1,6.7,15.1,15.1S238.2-51.1,229.8-51.1z"/>
</svg>
