<?xml version="1.0" encoding="utf-8"?>
<!-- Generator: Adobe Illustrator 19.1.0, SVG Export Plug-In . SVG Version: 6.00 Build 0)  -->
<!DOCTYPE svg PUBLIC "-//W3C//DTD SVG 1.1//EN" "http://www.w3.org/Graphics/SVG/1.1/DTD/svg11.dtd">
<svg version="1.1" id="Objets" xmlns="http://www.w3.org/2000/svg" xmlns:xlink="http://www.w3.org/1999/xlink" x="0px" y="0px"
	 viewBox="176 -120.2 107.6 105.4" style="enable-background:new 176 -120.2 107.6 105.4;" xml:space="preserve">
<style type="text/css">
	.st0{fill:#FFFFFF;}
</style>
<g>
	<path class="st0" d="M228.6-120.2c-29.1,0-52.6,23.6-52.6,52.6c0,29.1,23.6,52.6,52.6,52.6c29.1,0,52.6-23.6,52.6-52.6
		C281.2-96.6,257.7-120.2,228.6-120.2z M242-44.6l-13.3-13.3h-17.8v-19.5h17.8L242-90.6V-44.6z M248.7-52.5l-3.1-2.3
		c2.7-3.6,4.3-8,4.3-12.8s-1.6-9.2-4.3-12.8l3.1-2.3c3.2,4.2,5,9.4,5,15.1S251.9-56.7,248.7-52.5z M255-47.8
		c4.1-5.5,6.6-12.3,6.6-19.8s-2.5-14.2-6.6-19.8l3.1-2.3c4.6,6.2,7.4,13.8,7.4,22.1s-2.8,15.9-7.4,22.1L255-47.8z"/>
</g>
</svg>
